<svg xmlns="http://www.w3.org/2000/svg" xmlns:xlink="http://www.w3.org/1999/xlink" width="1920" zoomAndPan="magnify" viewBox="0 0 1440 809.999993" height="1080" preserveAspectRatio="xMidYMid meet" version="1.0"><defs><clipPath id="8dbf6427ae"><path d="M 53.582031 49.28125 L 1386.332031 49.28125 L 1386.332031 761.03125 L 53.582031 761.03125 Z M 53.582031 49.28125 " clip-rule="nonzero"/></clipPath></defs><rect x="-144" width="1728" fill="#ffffff" y="-80.999999" height="971.999992" fill-opacity="1"/><rect x="-144" width="1728" fill="#ffffff" y="-80.999999" height="971.999992" fill-opacity="1"/><rect x="-144" width="1728" fill="#d6dfcc" y="-80.999999" height="971.999992" fill-opacity="1"/><path fill="#fff5ed" d="M 54.34375 50.042969 L 1385.566406 50.042969 L 1385.566406 760.265625 L 54.34375 760.265625 L 54.34375 50.042969 " fill-opacity="1" fill-rule="nonzero"/><g clip-path="url(#8dbf6427ae)"><path fill="#000000" d="M 1384.804688 759.503906 L 1386.332031 759.503906 L 1386.332031 761.03125 L 1384.804688 761.03125 L 1384.804688 759.503906 M 53.582031 50.808594 L 55.109375 50.808594 L 55.109375 759.503906 L 53.582031 759.503906 L 53.582031 50.808594 M 53.582031 759.503906 L 55.109375 759.503906 L 55.109375 761.03125 L 53.582031 761.03125 L 53.582031 759.503906 M 1384.804688 50.808594 L 1386.332031 50.808594 L 1386.332031 759.503906 L 1384.804688 759.503906 L 1384.804688 50.808594 M 55.109375 759.503906 L 1384.804688 759.503906 L 1384.804688 761.03125 L 55.109375 761.03125 L 55.109375 759.503906 M 1384.804688 49.28125 L 1386.332031 49.28125 L 1386.332031 50.808594 L 1384.804688 50.808594 L 1384.804688 49.28125 M 53.582031 49.28125 L 55.109375 49.28125 L 55.109375 50.808594 L 53.582031 50.808594 L 53.582031 49.28125 M 55.109375 49.28125 L 1384.804688 49.28125 L 1384.804688 50.808594 L 55.109375 50.808594 L 55.109375 49.28125 " fill-opacity="1" fill-rule="nonzero"/></g></svg>