<?xml version="1.0" standalone="no"?>
<!DOCTYPE svg PUBLIC "-//W3C//DTD SVG 20010904//EN"
 "http://www.w3.org/TR/2001/REC-SVG-20010904/DTD/svg10.dtd">
<svg version="1.0" xmlns="http://www.w3.org/2000/svg"
 width="481.000000pt" height="200.000000pt" viewBox="0 0 481.000000 200.000000"
 preserveAspectRatio="xMidYMid meet">

<g transform="translate(0.000000,200.000000) scale(0.100000,-0.100000)"
fill="#000000" stroke="none">
<path d="M3834 1635 c-6 -15 2 -35 15 -35 5 0 11 11 13 25 6 28 -18 36 -28 10z"/>
<path d="M3910 1635 c-6 -8 -9 -19 -5 -25 11 -17 22 -11 27 15 6 28 -3 32 -22
10z"/>
<path d="M3266 1578 c8 -28 12 -33 20 -25 9 8 -6 47 -17 47 -6 0 -7 -10 -3
-22z"/>
<path d="M3318 1575 c4 -23 8 -25 63 -25 42 0 59 4 59 13 0 25 -24 37 -76 37
-49 0 -51 -1 -46 -25z"/>
<path d="M3441 1592 c0 -4 4 -16 9 -27 8 -18 9 -18 10 5 l1 25 14 -25 c10 -18
14 -20 15 -8 0 17 -15 31 -37 34 -7 1 -13 -1 -12 -4z"/>
<path d="M4348 1544 c-4 -5 -15 -32 -26 -59 -11 -28 -27 -67 -36 -87 -9 -21
-14 -38 -11 -38 9 0 86 173 82 184 -2 6 -6 6 -9 0z"/>
<path d="M3006 1453 l-57 -46 -75 6 c-41 3 -74 2 -74 -1 0 -4 13 -47 28 -97
l28 -90 69 -11 c39 -7 75 -9 81 -5 40 24 113 89 113 101 1 15 -46 180 -52 186
-1 2 -29 -18 -61 -43z m-26 -72 c0 -12 -29 -23 -41 -15 -18 10 -9 24 16 24 14
0 25 -4 25 -9z m35 -131 c3 -6 -1 -13 -10 -16 -19 -8 -30 0 -20 15 8 14 22 14
30 1z"/>
<path d="M4205 1469 c-10 -15 3 -25 16 -12 7 7 7 13 1 17 -6 3 -14 1 -17 -5z"/>
<path d="M3590 1390 c-30 -10 -51 -18 -45 -19 5 -1 4 -6 -3 -13 -29 -29 -13
-38 64 -38 41 0 73 4 70 8 -7 11 10 35 27 38 10 1 12 -5 9 -22 -2 -14 0 -24 7
-24 7 0 10 4 7 8 -11 18 15 35 85 57 l74 23 -120 1 c-90 0 -134 -5 -175 -19z"/>
<path d="M3289 1374 c-9 -11 -9 -18 -1 -26 14 -14 42 -3 42 16 0 20 -27 27
-41 10z"/>
<path d="M3494 1355 c-3 -8 -4 -20 -1 -27 3 -7 6 -3 6 9 1 12 7 24 14 26 9 4
9 6 -1 6 -7 1 -15 -6 -18 -14z"/>
<path d="M3692 1340 c0 -14 2 -19 5 -12 2 6 2 18 0 25 -3 6 -5 1 -5 -13z"/>
<path d="M3935 1240 c3 -5 10 -10 16 -10 5 0 9 5 9 10 0 6 -7 10 -16 10 -8 0
-12 -4 -9 -10z"/>
<path d="M4082 1218 c35 -89 44 -179 18 -163 -5 3 -10 4 -10 0 0 -3 12 -10 27
-16 22 -8 30 -7 40 7 15 21 17 11 3 -16 -8 -15 -2 -23 37 -48 50 -33 63 -33
63 -1 0 10 5 19 10 19 17 0 24 -31 11 -51 -9 -15 -8 -19 4 -19 21 0 19 29 -6
111 l-21 70 -91 61 c-49 33 -88 54 -85 46z m61 -163 c-3 -9 -8 -14 -10 -11 -3
3 -2 9 2 15 9 16 15 13 8 -4z"/>
<path d="M870 955 c0 -238 1 -245 20 -245 19 0 20 7 20 245 0 238 -1 245 -20
245 -19 0 -20 -7 -20 -245z"/>
<path d="M2190 955 c0 -238 1 -245 20 -245 19 0 20 7 20 245 0 238 -1 245 -20
245 -19 0 -20 -7 -20 -245z"/>
<path d="M2274 1184 c3 -9 6 -119 6 -245 0 -197 2 -229 15 -229 13 0 15 34 15
245 0 242 0 245 -21 245 -15 0 -19 -4 -15 -16z"/>
<path d="M3706 1177 c-33 -12 -61 -28 -64 -35 -2 -8 2 -10 13 -5 14 5 16 2 11
-15 -8 -23 12 -102 25 -102 5 0 6 -8 3 -17 -4 -11 -3 -14 3 -7 4 6 36 22 71
34 34 12 62 26 62 30 0 17 -48 134 -56 136 -5 2 -36 -7 -68 -19z"/>
<path d="M960 1145 c0 -21 30 -31 40 -14 11 17 3 29 -21 29 -10 0 -19 -7 -19
-15z"/>
<path d="M1083 1080 c-39 -45 -40 -50 -13 -50 19 0 20 -7 20 -133 0 -142 8
-169 54 -186 25 -10 70 4 88 27 11 14 10 14 -12 -1 -31 -22 -53 -22 -72 1 -25
28 -30 70 -22 184 l7 108 48 0 c27 0 49 5 49 10 0 6 -22 10 -50 10 l-50 0 0
35 c0 19 -3 35 -7 35 -5 0 -23 -18 -40 -40z"/>
<path d="M3352 1073 c2 -10 11 -19 21 -21 23 -5 21 10 -4 26 -18 12 -20 11
-17 -5z"/>
<path d="M973 1043 c-10 -3 -13 -47 -13 -169 0 -157 1 -164 20 -164 19 0 20 7
20 170 0 94 -3 170 -7 169 -5 0 -14 -3 -20 -6z"/>
<path d="M1497 1032 c12 -9 29 -34 38 -54 10 -26 22 -38 35 -38 19 0 19 2 7
33 -7 17 -28 42 -47 55 -39 26 -65 30 -33 4z"/>
<path d="M1643 1043 c-10 -3 -13 -47 -13 -169 0 -157 1 -164 20 -164 19 0 20
7 20 170 0 94 -3 170 -7 169 -5 0 -14 -3 -20 -6z"/>
<path d="M1731 1037 c-8 -11 -5 -13 18 -9 22 3 29 -1 34 -17 6 -24 25 -28 33
-6 14 36 -58 63 -85 32z"/>
<path d="M2018 1043 c31 -12 42 -61 42 -182 0 -97 3 -123 16 -136 23 -22 64
-15 83 15 15 25 15 25 -5 8 -25 -22 -29 -22 -48 -2 -13 12 -16 39 -16 130 0
114 0 116 -29 145 -16 16 -35 29 -43 28 -10 0 -10 -2 0 -6z"/>
<path d="M2364 1033 c121 -306 125 -326 92 -405 -15 -34 -19 -37 -47 -31 -28
5 -30 4 -27 -18 4 -32 35 -31 59 1 30 41 178 470 163 470 -8 0 -14 -8 -14 -17
0 -21 -80 -266 -86 -261 -2 2 -25 64 -53 138 -41 114 -53 136 -71 138 -19 3
-21 0 -16 -15z"/>
<path d="M3293 996 c-25 -40 -29 -54 -20 -65 10 -12 9 -14 -5 -8 -10 3 -18 2
-18 -2 0 -11 31 -24 38 -16 3 3 3 5 0 5 -3 0 6 13 20 29 15 16 35 42 44 58 17
29 17 30 -5 40 -20 9 -25 5 -54 -41z m2 -64 c-3 -3 -11 0 -18 7 -9 10 -8 11 6
5 10 -3 15 -9 12 -12z"/>
<path d="M1350 1014 c-80 -68 -88 -188 -16 -260 54 -54 136 -62 191 -19 18 15
17 15 -12 0 -18 -8 -50 -15 -71 -15 -33 0 -45 6 -70 35 -66 74 -67 192 -2 257
36 35 22 37 -20 2z"/>
<path d="M3385 1020 c-12 -20 -14 -50 -3 -56 7 -5 8 -2 3 6 -5 8 -3 11 6 8 8
-3 14 -10 14 -15 0 -6 4 -15 9 -20 5 -5 6 -2 1 6 -5 9 -3 12 6 9 8 -3 14 -10
14 -15 0 -6 3 -14 8 -17 4 -3 5 -3 2 1 -3 3 4 12 15 20 28 20 25 35 -15 61
-38 24 -51 27 -60 12z"/>
<path d="M1898 1003 c-24 -28 -28 -51 -13 -63 12 -10 16 -9 21 4 3 8 4 21 1
28 -2 7 0 21 5 31 5 9 7 17 5 17 -2 0 -11 -8 -19 -17z"/>
<path d="M2897 1003 c-3 -5 -2 -15 3 -22 10 -17 43 -6 38 12 -6 15 -34 22 -41
10z"/>
<path d="M4002 933 c5 -26 38 -29 38 -4 0 15 -6 21 -21 21 -14 0 -19 -5 -17
-17z"/>
<path d="M1894 826 c-39 -39 -43 -63 -14 -94 28 -30 74 -32 120 -6 l25 15 -25
-8 c-88 -25 -135 39 -74 101 15 14 21 26 14 26 -6 0 -27 -15 -46 -34z"/>
<path d="M3595 849 c-10 -15 3 -25 16 -12 7 7 7 13 1 17 -6 3 -14 1 -17 -5z"/>
<path d="M3190 770 c22 -33 43 -60 46 -60 2 0 -14 27 -36 60 -22 33 -43 60
-46 60 -2 0 14 -27 36 -60z"/>
<path d="M4252 700 c-6 -11 -12 -34 -12 -52 1 -29 2 -31 12 -14 10 18 23 86
16 86 -2 0 -9 -9 -16 -20z"/>
<path d="M3247 682 c3 -13 -1 -30 -9 -40 -26 -30 -69 -102 -60 -102 5 0 27 29
49 64 36 57 40 67 28 83 -13 17 -14 16 -8 -5z"/>
<path d="M4208 672 c-10 -2 -18 -8 -18 -13 0 -11 11 -11 30 1 18 11 11 18 -12
12z"/>
<path d="M4208 633 c-14 -3 -18 -15 -18 -54 0 -32 4 -49 13 -49 8 0 7 -4 -3
-10 -12 -8 -12 -10 5 -11 l20 0 -20 -10 c-20 -9 -20 -9 0 -6 17 2 20 11 23 75
2 39 2 71 0 71 -2 -1 -11 -3 -20 -6z"/>
<path d="M3450 613 c4 -37 1 -46 -13 -34 -10 8 -19 4 -35 -19 -13 -16 -27 -41
-32 -55 -5 -14 -14 -25 -20 -25 -24 0 -6 -23 56 -70 37 -27 70 -50 74 -50 4 0
34 36 68 80 34 44 56 80 49 80 -7 0 -43 25 -80 56 -49 40 -68 50 -67 37z"/>
<path d="M3095 535 c-5 -2 -23 -6 -39 -10 -15 -3 -27 -8 -25 -10 2 -2 31 3 64
10 33 7 49 13 35 13 -14 0 -29 -1 -35 -3z"/>
<path d="M3850 500 c0 -5 5 -10 10 -10 6 0 10 5 10 10 0 6 -4 10 -10 10 -5 0
-10 -4 -10 -10z"/>
<path d="M3196 472 c-3 -6 -1 -14 5 -17 15 -10 25 3 12 16 -7 7 -13 7 -17 1z"/>
<path d="M3370 195 c-12 -15 -5 -55 11 -55 5 0 4 9 -3 21 -11 17 -10 22 6 35
11 8 15 14 9 14 -6 0 -16 -7 -23 -15z"/>
</g>
</svg>
